<svg id="Layer_1" data-name="Layer 1" xmlns="http://www.w3.org/2000/svg" viewBox="0 0 138 89"><circle cx="28.5" cy="28.5" r="28.5" style="fill:#ffbf00"/><path d="M143,71.5A28.5,28.5,0,0,1,98.39,95a36.11,36.11,0,0,1-28.4.16A28.49,28.49,0,1,1,50,45a36,36,0,0,1,67.2-1.9A28.49,28.49,0,0,1,143,71.5Z" transform="translate(-5 -13)" style="fill:#3f51b5"/><path d="M20.72,80.72l1.69-8.21h3.32L22.44,85.39H19.56l-2.44-8.1-2.44,8.1H11.81L8.53,72.51h3.32l1.68,8.19,2.36-8.19h2.48Z" transform="translate(-5 -13)" style="fill:#ffbf00"/><path d="M33.36,85.63a6.3,6.3,0,0,1-4.61-1.74A6.15,6.15,0,0,1,27,79.26v-.33a7.79,7.79,0,0,1,.75-3.47,5.53,5.53,0,0,1,2.12-2.36A6,6,0,0,1,33,72.28a5.34,5.34,0,0,1,4.16,1.66,6.79,6.79,0,0,1,1.52,4.73v1.4H30.45a3.27,3.27,0,0,0,1,2,3.08,3.08,0,0,0,2.12.76,3.71,3.71,0,0,0,3.11-1.44l1.69,1.89A5.13,5.13,0,0,1,36.29,85,6.86,6.86,0,0,1,33.36,85.63ZM33,75.05a2.14,2.14,0,0,0-1.66.69,3.61,3.61,0,0,0-.82,2h4.78v-.28a2.56,2.56,0,0,0-.61-1.77A2.22,2.22,0,0,0,33,75.05Z" transform="translate(-5 -13)" style="fill:#ffbf00"/><path d="M48.07,85.39a3.72,3.72,0,0,1-.34-1.15,4.17,4.17,0,0,1-3.25,1.39,4.57,4.57,0,0,1-3.14-1.09,3.51,3.51,0,0,1-1.24-2.76,3.65,3.65,0,0,1,1.51-3.15A7.45,7.45,0,0,1,46,77.53h1.58v-.74a2.1,2.1,0,0,0-.46-1.43,1.77,1.77,0,0,0-1.44-.54,2.06,2.06,0,0,0-1.37.42,1.44,1.44,0,0,0-.49,1.14H40.38a3.48,3.48,0,0,1,.69-2.07,4.58,4.58,0,0,1,2-1.49,7.15,7.15,0,0,1,2.84-.54,5.69,5.69,0,0,1,3.78,1.19A4.2,4.2,0,0,1,51,76.84v5.58a6.08,6.08,0,0,0,.52,2.77v.2ZM45.23,83a2.93,2.93,0,0,0,1.4-.34,2.15,2.15,0,0,0,.95-.91V79.54H46.3c-1.73,0-2.64.59-2.75,1.78v.21a1.36,1.36,0,0,0,.45,1A1.74,1.74,0,0,0,45.23,83Z" transform="translate(-5 -13)" style="fill:#ffbf00"/><path d="M57.79,69.35v3.16H60V75H57.79v6.43a1.55,1.55,0,0,0,.28,1,1.36,1.36,0,0,0,1,.31,6.08,6.08,0,0,0,1-.08v2.6a7,7,0,0,1-2.09.31q-3.61,0-3.69-3.65V75H52.47V72.51h1.88V69.35Z" transform="translate(-5 -13)" style="fill:#ffbf00"/><path d="M65.27,73.92a4.27,4.27,0,0,1,3.44-1.64q4.19,0,4.25,4.86v8.25H69.52V77.24A2.4,2.4,0,0,0,69,75.6a2,2,0,0,0-1.58-.53,2.33,2.33,0,0,0-2.19,1.17v9.15H61.83V67.11h3.44Z" transform="translate(-5 -13)" style="fill:#ffbf00"/><path d="M81.48,85.63a6.3,6.3,0,0,1-4.61-1.74,6.15,6.15,0,0,1-1.78-4.63v-.33a7.79,7.79,0,0,1,.75-3.47A5.59,5.59,0,0,1,78,73.1a6,6,0,0,1,3.14-.82,5.34,5.34,0,0,1,4.16,1.66,6.79,6.79,0,0,1,1.52,4.73v1.4h-8.2a3.21,3.21,0,0,0,1,2,3.09,3.09,0,0,0,2.13.76,3.7,3.7,0,0,0,3.1-1.44l1.69,1.89A5.13,5.13,0,0,1,84.41,85,6.86,6.86,0,0,1,81.48,85.63Zm-.39-10.58a2.15,2.15,0,0,0-1.66.69,3.61,3.61,0,0,0-.82,2H83.4v-.28a2.56,2.56,0,0,0-.62-1.77A2.22,2.22,0,0,0,81.09,75.05Z" transform="translate(-5 -13)" style="fill:#ffbf00"/><path d="M96,75.74a9.89,9.89,0,0,0-1.24-.09A2.53,2.53,0,0,0,92.17,77v8.42H88.73V72.51H92l.1,1.54a3.18,3.18,0,0,1,2.86-1.77,3.69,3.69,0,0,1,1.07.15Z" transform="translate(-5 -13)" style="fill:#ffbf00"/><path d="M107.63,81.82h-6.26l-1.19,3.57h-3.8l6.45-17.33h3.31l6.49,17.33h-3.8Zm-5.29-2.89h4.33l-2.18-6.49Z" transform="translate(-5 -13)" style="fill:#ffbf00"/><path d="M125.62,79.07a7.72,7.72,0,0,1-1.35,4.77,4.35,4.35,0,0,1-3.65,1.79,4,4,0,0,1-3.16-1.36v6.07H114V72.51h3.19l.12,1.27a4.05,4.05,0,0,1,3.26-1.5A4.36,4.36,0,0,1,124.3,74a7.92,7.92,0,0,1,1.32,4.85Zm-3.44-.25a5.09,5.09,0,0,0-.64-2.77,2.07,2.07,0,0,0-1.85-1,2.27,2.27,0,0,0-2.23,1.24v5.27a2.29,2.29,0,0,0,2.25,1.28Q122.19,82.86,122.18,78.82Z" transform="translate(-5 -13)" style="fill:#ffbf00"/><path d="M139.34,79.07A7.72,7.72,0,0,1,138,83.84a4.35,4.35,0,0,1-3.65,1.79,4,4,0,0,1-3.15-1.36v6.07h-3.44V72.51h3.19l.12,1.27a4,4,0,0,1,3.26-1.5A4.34,4.34,0,0,1,138,74a7.92,7.92,0,0,1,1.32,4.85Zm-3.44-.25a5,5,0,0,0-.64-2.77,2.07,2.07,0,0,0-1.85-1,2.25,2.25,0,0,0-2.22,1.24v5.27a2.29,2.29,0,0,0,2.25,1.28Q135.9,82.86,135.9,78.82Z" transform="translate(-5 -13)" style="fill:#ffbf00"/></svg>